:SAMPLES-PER-SECOND 30
:FRAME-RANGE 1-1390
:FULLY-SPECIFIED
:DEGREES
1347
root  60.3451 38.4882 -21.9045 0.0963745 32.1613 7.40527
RightUpLeg  20.0677 -6.88002 -7.50887
RightLeg  9.7582 11.6747 -1.89097
RightFoot  -23.0168 0.0103575 1.6264
RightToes  -2.9104e-010 0 -3.6325e-017
Spine  9.31889 0.998054 5.43807
Spine1  -2.76521 2.40046 -6.12237
HEad  -7.40601 -31.4466 4.23588
LeftShoulder1  1.00574 0.82877 -31.5288
LeftArm  10.7015 33.1105 -29.772
LeftForeArm  10.2826 -2.20526 -18.0528
LeftHand  0.344007 0.610735 -8.51824
RightShoulder  8.72727 12.6701 47.2326
RightArm  41.8819 2.3068 20.7312
RightForeArm  4.03371 17.6918 9.36664
RightHand  0.308842 3.08569 3.99999
LeftUpLeg  -15.9154 5.54895 0.66594
LeftLeg  1.29195 4.15807 -4.81353
LeftFoot  6.00526 2.26094 -14.9912
LeftToes  5.45371e-012 -1.3743e-010 1.09575e-010
1348
root  61.6567 38.2591 -20.8504 -0.20459 31.081 7.59186
RightUpLeg  22.4215 -4.60522 -8.28188
RightLeg  10.5941 11.4234 -2.25528
RightFoot  -23.2739 0.313262 4.50615
RightToes  -2.9104e-010 0 -3.6325e-017
Spine  8.80974 1.24055 4.14996
Spine1  -2.37651 2.55944 -6.00816
HEad  -6.54209 -32.3894 4.56204
LeftShoulder1  1.0245 0.772477 -31.4413
LeftArm  10.6235 32.8713 -30.4439
LeftForeArm  10.6304 -1.76633 -18.1545
LeftHand  0.33898 0.704074 -8.57864
RightShoulder  8.30736 11.8248 47.4501
RightArm  32.7111 1.92595 19.3515
RightForeArm  11.6688 12.0668 13.5296
RightHand  0.279727 2.70146 3.80416
LeftUpLeg  -16.0494 6.37951 -1.57977
LeftLeg  5.26773 1.58916 -4.4596
LeftFoot  13.8017 0.548396 -2.83968
LeftToes  5.45371e-012 -1.3743e-010 1.09575e-010
1349
root  62.9132 38.1839 -19.8629 -0.123962 29.8631 8.98822
RightUpLeg  22.9641 4.12481 -7.9402
RightLeg  15.1538 5.68147 -0.488972
RightFoot  -22.2445 0.679864 8.69313
RightToes  -2.9104e-010 0 -3.6325e-017
Spine  10.3711 1.25718 1.55824
Spine1  -4.10725 2.21753 -5.64657
HEad  -6.30427 -32.6138 5.49277
LeftShoulder1  0.924755 1.08911 -32.225
LeftArm  13.7657 31.5428 -29.7958
LeftForeArm  8.16871 -2.81791 -18.2421
LeftHand  0.338911 0.67227 -8.51367
RightShoulder  7.99926 10.874 48.7329
RightArm  22.8576 1.96491 17.234
RightForeArm  18.9203 4.69396 16.6671
RightHand  0.21213 2.21171 3.05971
LeftUpLeg  -17.0531 11.3911 -5.46987
LeftLeg  13.1723 -2.44076 -2.26759
LeftFoot  8.51785 0.288751 -1.9465
LeftToes  5.45371e-012 -1.3743e-010 1.09575e-010
1350
root  64.0296 38.1782 -18.9785 0.0808105 28.8399 9.99976
RightUpLeg  19.6052 6.52017 -10.4133
RightLeg  25.3016 5.40776 2.56353
RightFoot  -18.5538 0.908336 16.3197
RightToes  -2.9104e-010 0 -3.6325e-017
Spine  10.7674 1.48847 0.309059
Spine1  -3.74482 2.28165 -6.16972
HEad  -6.83844 -33.4234 5.66912
LeftShoulder1  1.05434 0.848621 -33.6326
LeftArm  17.0683 26.1172 -29.5431
LeftForeArm  5.83294 -2.11975 -18.7684
LeftHand  0.292334 0.844094 -7.66821
RightShoulder  7.84166 10.5413 48.9071
RightArm  10.3297 1.01382 16.4344
RightForeArm  25.0696 -3.53426 17.0757
RightHand  0.167912 1.84742 2.53706
LeftUpLeg  -16.8191 15.9931 -7.77574
LeftLeg  17.5975 -6.1425 -2.14576
LeftFoot  4.07628 0.243134 -1.97926
LeftToes  5.45371e-012 -1.3743e-010 1.09575e-010
1351
root  64.9776 38.3369 -18.2151 0.261047 25.9713 9.97607
RightUpLeg  11.7205 7.65162 -12.3711
RightLeg  38.8754 5.18516 4.20541
RightFoot  -9.27992 -0.437219 20.5583
RightToes  -2.9104e-010 0 -3.6325e-017
Spine  11.3558 2.15479 0.182295
Spine1  -3.79134 2.9175 -7.68908
HEad  -7.05989 -33.3078 4.93028
LeftShoulder1  1.16877 0.550334 -33.5028
LeftArm  15.7008 21.0982 -31.1741
LeftForeArm  7.65 -1.28443 -18.769
LeftHand  0.232836 0.959905 -6.31619
RightShoulder  8.08024 11.0105 48.7625
RightArm  9.37929 -0.505501 16.1387
RightForeArm  20.2197 -5.06218 17.4475
RightHand  0.161049 0.996096 2.83915
LeftUpLeg  -15.558 16.9324 -7.53154
LeftLeg  18.7031 -4.29905 -2.22674
LeftFoot  1.33222 0.162145 -1.53307
LeftToes  5.45371e-012 -1.3743e-010 1.09575e-010
1352
root  65.8162 38.5553 -17.4297 0.623474 22.8449 9.79065
RightUpLeg  2.13472 10.0103 -12.6448
RightLeg  51.679 1.95849 2.29544
RightFoot  4.97426 -2.15011 15.1578
RightToes  -2.9104e-010 0 -3.6325e-017
Spine  11.3812 2.16912 -1.71354
Spine1  -3.69119 2.52588 -6.94344
HEad  -7.39839 -31.0902 4.69396
LeftShoulder1  1.16005 0.545076 -33.1408
LeftArm  12.6991 17.5494 -32.3575
LeftForeArm  9.52985 -2.89373 -17.9901
LeftHand  0.232943 0.615795 -5.80781
RightShoulder  8.48401 11.823 48.4777
RightArm  13.5322 -0.097605 16.6649
RightForeArm  18.7644 -3.80512 18.0144
RightHand  0.232525 0.481832 4.56547
LeftUpLeg  -13.7151 15.1858 -6.48869
LeftLeg  18.2244 0.351965 -2.33197
LeftFoot  -0.770663 0.151713 -1.59016
LeftToes  5.45371e-012 -1.3743e-010 1.09575e-010
1353
root  66.5511 38.7013 -16.6518 0.225403 20.8671 9.50751
RightUpLeg  -4.84614 10.8325 -12.4187
RightLeg  60.8531 -0.955452 -2.3643
RightFoot  6.67652 -2.01513 12.951
RightToes  -2.9104e-010 0 -3.6325e-017
Spine  11.9443 1.5605 -4.4692
Spine1  -3.34376 1.17927 -5.09823
HEad  -8.05128 -28.9767 4.73963
LeftShoulder1  1.27811 0.248665 -33.2018
LeftArm  16.0234 13.6061 -32.1096
LeftForeArm  5.94371 -6.30031 -17.0994
LeftHand  0.239627 0.343836 -5.60914
RightShoulder  8.52642 12.1047 47.832
RightArm  17.0061 -0.0327517 17.6651
RightForeArm  21.836 -3.33038 18.0088
RightHand  0.35054 1.1001 6.17803
LeftUpLeg  -11.3647 12.7866 -5.41193
LeftLeg  18.0209 4.53384 -2.54891
LeftFoot  -2.80688 0.158939 -1.90401
LeftToes  5.45371e-012 -1.3743e-010 1.09575e-010
1354
root  67.3118 38.9073 -15.7991 -0.679138 20.063 8.40753
RightUpLeg  -10.213 9.97065 -11.0812
RightLeg  66.2873 -2.30654 -6.40336
RightFoot  3.95507 -1.5621 11.797
RightToes  -2.9104e-010 0 -3.6325e-017
Spine  12.3034 0.50361 -6.03275
Spine1  -2.78426 -0.455717 -3.00529
HEad  -8.03781 -28.2104 4.70345
LeftShoulder1  1.46128 -0.236282 -33.0168
LeftArm  19.8612 8.36869 -31.2773
LeftForeArm  1.99304 -8.02672 -16.7113
LeftHand  0.220196 0.212915 -5.00943
RightShoulder  7.99478 11.3713 47.0523
RightArm  19.2515 -0.680317 18.4531
RightForeArm  23.0835 -1.52958 17.7556
RightHand  0.412036 2.15065 6.16649
LeftUpLeg  -8.53724 10.4129 -4.23746
LeftLeg  17.3164 7.45063 -2.36076
LeftFoot  -4.45827 0.149636 -2.04265
LeftToes  5.45371e-012 -1.3743e-010 1.09575e-010
1355
root  68.0454 39.0807 -14.9056 -1.22272 19.5813 7.2547
RightUpLeg  -15.1723 8.54559 -9.2213
RightLeg  68.2248 -2.95638 -8.85209
RightFoot  3.23968 -1.22819 9.75188
RightToes  -2.9104e-010 0 -3.6325e-017
Spine  12.1417 -0.534657 -7.2319
Spine1  -2.29816 -1.92604 -1.05124
HEad  -8.05795 -28.6374 5.54537
LeftShoulder1  1.5818 -0.630381 -32.2155
LeftArm  16.5303 2.16394 -30.3944
LeftForeArm  3.41025 -6.10697 -17.3595
LeftHand  0.213506 0.085864 -4.7244
RightShoulder  7.29704 10.2902 46.3006
RightArm  23.2669 -1.86802 19.183
RightForeArm  19.4836 3.87655 16.8527
RightHand  0.376184 2.41245 5.40401
LeftUpLeg  -6.04549 9.26956 -3.28499
LeftLeg  16.493 8.82485 -2.40548
LeftFoot  -5.96367 0.135403 -2.12032
LeftToes  5.45371e-012 -1.3743e-010 1.09575e-010
1356
root  68.7672 39.1961 -13.9902 -1.41034 19.0188 6.44653
RightUpLeg  -19.4597 7.00847 -7.46639
RightLeg  66.7214 -3.37748 -9.23206
RightFoot  1.94252 -1.04604 9.0793
RightToes  -2.9104e-010 0 -3.6325e-017
Spine  11.7126 -1.40149 -8.32142
Spine1  -2.07273 -3.06014 0.598475
HEad  -7.44502 -30.0524 5.85922
LeftShoulder1  1.64097 -0.913341 -31.1041
LeftArm  9.77813 -4.22799 -29.3627
LeftForeArm  6.40127 -2.91333 -17.9404
LeftHand  0.19789 0.360169 -4.65857
RightShoulder  6.09743 8.27246 45.2979
RightArm  29.585 -2.40817 20.6734
RightForeArm  12.7873 9.02048 15.2033
RightHand  0.320925 2.34997 4.62505
LeftUpLeg  -3.69583 9.0417 -2.79818
LeftLeg  15.4537 9.46952 -2.501
LeftFoot  -7.42201 0.117604 -2.13461
LeftToes  5.45371e-012 -1.3743e-010 1.09575e-010
1357
root  69.4845 39.2714 -13.0668 -1.72894 18.1893 5.83099
RightUpLeg  -22.3461 5.74184 -5.5611
RightLeg  61.7128 -3.84287 -8.22462
RightFoot  0.278068 -0.922366 9.06572
RightToes  -2.9104e-010 0 -3.6325e-017
Spine  11.7774 -2.0579 -9.00242
Spine1  -2.41607 -3.8381 1.88994
HEad  -6.80405 -31.6595 6.30767
LeftShoulder1  1.65574 -1.06846 -30.159
LeftArm  3.25362 -10.3239 -27.7854
LeftForeArm  8.64441 -0.0431487 -18.0731
LeftHand  0.182702 0.714209 -4.68659
RightShoulder  5.76441 7.66342 45.1578
RightArm  36.3009 -4.13228 20.6576
RightForeArm  6.40941 13.8718 12.4979
RightHand  0.295704 2.57692 4.1068
LeftUpLeg  -1.02678 9.4718 -2.49042
LeftLeg  14.2684 9.67095 -2.59948
LeftFoot  -8.77188 0.10017 -2.11894
LeftToes  5.45371e-012 -1.3743e-010 1.09575e-010
1358
root  70.2101 39.3197 -12.1401 -2.02985 17.162 5.27374
RightUpLeg  -23.6924 4.37755 -3.47481
RightLeg  53.065 -4.65448 -6.98938
RightFoot  -0.51798 -0.844324 8.85805
RightToes  -2.9104e-010 0 -3.6325e-017
Spine  11.6564 -2.61977 -8.97242
Spine1  -2.45338 -4.31939 2.65575
HEad  -6.45852 -32.9824 6.83922
LeftShoulder1  1.67718 -1.22638 -29.3934
LeftArm  -1.51362 -16.0065 -25.8536
LeftForeArm  9.61189 1.85907 -17.9831
LeftHand  0.163115 1.00322 -4.52047
RightShoulder  5.37552 6.9588 44.9433
RightArm  39.2805 -5.02773 21.0723
RightForeArm  4.08698 16.0186 10.822
RightHand  0.267746 2.48056 3.753
LeftUpLeg  1.68512 9.50075 -2.47768
LeftLeg  12.9068 10.4943 -2.35295
LeftFoot  -10.0502 0.087102 -2.3792
LeftToes  5.45371e-012 -1.3743e-010 1.09575e-010
1359
root  70.9189 39.3223 -11.2186 -2.11035 15.9604 4.91473
RightUpLeg  -23.4251 2.05826 -1.37557
RightLeg  40.7164 -5.50758 -5.32884
RightFoot  -0.448882 -0.872528 9.10084
RightToes  -2.9104e-010 0 -3.6325e-017
Spine  11.3365 -3.09975 -8.62633
Spine1  -2.35562 -4.62345 3.07209
HEad  -6.68052 -34.0157 7.21407
LeftShoulder1  1.69279 -1.36025 -28.7266
LeftArm  -4.90855 -20.7355 -23.9415
LeftForeArm  10.2038 2.58705 -17.8013
LeftHand  0.140741 1.24128 -4.18888
RightShoulder  5.27496 6.73262 45.0841
RightArm  38.6648 -5.22807 21.1465
RightForeArm  5.12838 15.595 11.1255
RightHand  0.280005 2.68834 3.81543
LeftUpLeg  4.23297 9.40257 -2.75823
LeftLeg  11.4229 11.7121 -2.16644
LeftFoot  -11.2038 0.0702091 -2.51451
LeftToes  5.45371e-012 -1.3743e-010 1.09575e-010
1360
root  71.6028 39.288 -10.2724 -1.92444 14.6747 4.7821
RightUpLeg  -21.2685 -2.15166 1.17314
RightLeg  24.5504 -6.65622 -3.52229
RightFoot  0.448037 -1.0915 10.5733
RightToes  -2.9104e-010 0 -3.6325e-017
Spine  10.8236 -3.48704 -8.33425
Spine1  -2.30259 -4.84856 3.45233
HEad  -7.11318 -34.6471 7.83634
LeftShoulder1  1.69846 -1.47314 -28.0359
LeftArm  -6.79145 -24.013 -22.3951
LeftForeArm  10.8743 1.78756 -17.5737
LeftHand  0.116081 1.275 -3.52371
RightShoulder  5.455 6.92685 45.7779
RightArm  35.412 -4.86901 20.6228
RightForeArm  8.3766 12.9964 13.0424
RightHand  0.258343 2.75396 3.47064
LeftUpLeg  6.69329 9.17499 -3.33931
LeftLeg  9.64219 13.1394 -2.1234
LeftFoot  -12.2599 0.0492272 -3.02723
LeftToes  5.45371e-012 -1.3743e-010 1.09575e-010
1361
root  72.2837 39.1477 -9.22617 -1.5014 13.2688 5.08533
RightUpLeg  -17.4699 -4.43382 2.19471
RightLeg  6.45476 -9.36114 0.959484
RightFoot  1.13965 -1.2589 11.5477
RightToes  -2.9104e-010 0 -3.6325e-017
Spine  10.1408 -3.61807 -8.43434
Spine1  -2.46959 -4.90195 3.97902
HEad  -7.51809 -35.0427 7.9176
LeftShoulder1  1.68962 -1.52044 -27.5252
LeftArm  -7.44061 -25.8904 -21.7461
LeftForeArm  11.7046 -0.311786 -17.1766
LeftHand  0.0949342 1.10645 -2.77527
RightShoulder  5.54197 6.95662 46.393
RightArm  28.6324 -3.98752 19.9653
RightForeArm  15.5342 7.88078 15.6285
RightHand  0.256126 2.64743 3.49343
LeftUpLeg  8.99736 8.81623 -4.4969
LeftLeg  8.1523 14.7854 -2.069
LeftFoot  -13.5424 0.00984634 -3.71107
LeftToes  5.45371e-012 -1.3743e-010 1.09575e-010
